<?xml version="1.0" encoding="UTF-8"?><svg id="Layer_2" xmlns="http://www.w3.org/2000/svg" width="732.04" height="527.62" xmlns:xlink="http://www.w3.org/1999/xlink" viewBox="0 0 732.04 527.62"><defs><style>.cls-1,.cls-2{fill:none;}.cls-3{clip-path:url(#clippath);}.cls-4{fill:#f7ef75;}.cls-5{fill:#53c6db;}.cls-6{clip-path:url(#clippath-1);}.cls-7{fill:#030302;}.cls-7,.cls-8,.cls-9,.cls-10,.cls-11,.cls-12,.cls-13,.cls-14,.cls-15,.cls-16,.cls-17,.cls-18,.cls-19,.cls-2{stroke-miterlimit:10;}.cls-7,.cls-8,.cls-11,.cls-12,.cls-16,.cls-18,.cls-19{stroke:#231f20;}.cls-8{fill:#7dc2eb;}.cls-9{fill:#e7e747;}.cls-9,.cls-10,.cls-2{stroke:#171717;}.cls-10{fill:#f3be70;}.cls-11{fill:#ed1c24;}.cls-12{fill:#e2a679;}.cls-13{fill:#d3cbc5;}.cls-13,.cls-14,.cls-17{stroke:#010101;}.cls-14{fill:#b7a192;}.cls-15{fill:#646565;stroke:#646666;}.cls-16{fill:#63481c;}.cls-17{fill:#72431b;}.cls-18{fill:#2b9b47;}.cls-19{fill:#51ae47;}</style><clipPath id="clippath"><ellipse class="cls-1" cx="340.36" cy="269.26" rx="224.19" ry="223.27"/></clipPath><clipPath id="clippath-1"><path class="cls-2" d="m343.81,484.78c0,12.18-9,10.87-30.26,10.87s-30.49,3.43-30.49-8.75c0-9.16,4.26-26.21,13.03-29.15,2.38-.8,7.29,5.23,15.2,5.69,2.64.15,6.59-.53,14.84-4.79,6.09-3.14,17.67,16.47,17.67,26.12Z"/></clipPath></defs><g class="cls-3"><rect class="cls-19" x="14.69" y="37.23" width="716.85" height="489.89"/><rect class="cls-5" width="594.07" height="196.37"/><g><rect class="cls-16" x="229.68" y="185.88" width="10.52" height="74.34"/><path class="cls-7" d="m232.29,237.13l-.18,7.9"/><path class="cls-7" d="m235.38,243.85l-.27,6.9"/><path class="cls-7" d="m238.09,232.95l-.27,6.9"/><path class="cls-7" d="m232.37,250.29l-.27,6.9"/><path class="cls-7" d="m233.92,230.49l-.27,6.9"/><path class="cls-7" d="m238.28,250.84l-.27,6.9"/><polygon class="cls-18" points="235.53 161.77 235.22 161.36 235.21 161.38 235.25 161.32 235.53 161.77"/><polygon class="cls-18" points="196.97 234.22 207.33 224.04 200.9 224.21 214.1 208.9 204.23 210.79 217.6 191.19 207.5 194.62 235.21 161.38 235.22 161.36 235.53 161.77 262.72 194.08 253.92 191.34 267.62 210.79 258.2 208.68 271.37 224.21 265.65 224.19 276.88 235.31 196.97 234.22"/></g><g><rect class="cls-16" x="377.53" y="156.33" width="12.54" height="85.4"/><path class="cls-7" d="m380.64,215.19l-.22,9.08"/><path class="cls-7" d="m384.32,222.91l-.32,7.93"/><path class="cls-7" d="m387.56,210.39l-.32,7.93"/><path class="cls-7" d="m380.74,230.31l-.32,7.93"/><path class="cls-7" d="m382.58,207.57l-.32,7.93"/><path class="cls-7" d="m387.78,230.94l-.32,7.93"/><polygon class="cls-18" points="384.51 128.62 384.14 128.16 384.12 128.18 384.17 128.1 384.51 128.62"/><polygon class="cls-18" points="338.52 211.85 350.88 200.15 343.2 200.35 358.95 182.77 347.18 184.93 363.13 162.42 351.08 166.36 384.12 128.18 384.14 128.16 384.51 128.62 416.92 165.74 406.44 162.59 422.77 184.93 411.53 182.51 427.23 200.35 420.42 200.33 433.81 213.1 338.52 211.85"/></g><g><rect class="cls-16" x="299.59" y="168.59" width="15.34" height="122.62"/><path class="cls-7" d="m303.41,253.11l-.26,13.03"/><path class="cls-7" d="m307.93,264.19l-.39,11.38"/><path class="cls-7" d="m311.87,246.21l-.39,11.38"/><path class="cls-7" d="m303.55,274.82l-.39,11.38"/><path class="cls-7" d="m305.78,242.17l-.39,11.38"/><path class="cls-7" d="m312.16,275.72l-.39,11.38"/><polygon class="cls-18" points="308.06 128.81 307.61 128.15 307.59 128.17 307.65 128.07 308.06 128.81"/><polygon class="cls-18" points="251.87 248.35 266.99 231.55 257.59 231.83 276.84 206.58 262.45 209.7 281.94 177.36 267.2 183.03 307.59 128.17 307.61 128.15 308.06 128.81 347.75 182.08 334.92 177.57 354.93 209.64 341.17 206.17 360.41 231.76 352.06 231.74 368.47 250.07 251.87 248.35"/></g><path class="cls-8" d="m553.94,359.52c0,57.66-81.17,104.4-181.29,104.4s-181.29-46.74-181.29-104.4,136.72-18.3,224.99-65.55c80.12-42.89,137.58,7.9,137.58,65.55Z"/><path class="cls-19" d="m375.11,298.5l65.52,75.31"/><rect class="cls-10" x="342.92" y="292.99" width="6.55" height="190.49" transform="translate(138.26 -88.57) rotate(18.16)"/><g><path class="cls-12" d="m326.84,464.52c-5.23,0-10.46,0-15.69,0-4.68,0-9.36,0-14.04,0,0-2.6,0-5.2,0-7.8,0-7.81,0-15.61,0-23.42h29.73c0,7.63,0,15.26,0,22.89,0,2.78,0,5.55,0,8.33Z"/><path class="cls-12" d="m349.51,396.9c1.22,31.21-4.89,53.37-36.74,53.11-30.19-.25-41.28-22.18-41.06-53.11.03-4.83.28-8.29.78-11.05.82-4.5,2.71-14.86,10.32-22.61,10.18-10.36,24.73-9.96,31.26-9.96,29.33,0,34.28,14.31,35.43,43.62Z"/><g><g class="cls-6"><rect class="cls-9" x="281.93" y="440.57" width="92.82" height="69.06"/><rect class="cls-15" x="270.67" y="467.57" width="87.37" height="7.6"/><rect class="cls-15" x="270.43" y="485.05" width="87.37" height="7.62"/></g><path class="cls-2" d="m343.81,484.78c0,12.18-9,10.87-30.26,10.87s-30.49,3.43-30.49-8.75c0-9.16,4.26-26.21,13.03-29.15,2.38-.8,7.29,5.23,15.2,5.69,2.64.15,6.59-.53,14.84-4.79,6.09-3.14,17.67,16.47,17.67,26.12Z"/></g><path class="cls-17" d="m269.26,387.92c-.69.18-1.34.43-1.92.76-.63-1.22-.88-2.45-.78-3.55.68.97,1.59,1.91,2.7,2.79Z"/><path class="cls-17" d="m299.45,388.75c1.87-1.23,3.68-2.13,5.31-2.62-.56.67-1.16,1.17-1.84,1.48-1.34.63-2.49,1-3.47,1.14Z"/><path class="cls-17" d="m325.48,389.57c-1.75-.47-3.11-1.55-3.36-3.14,1.81.16,2.86,1.32,3.36,3.14Z"/><path class="cls-17" d="m354.1,393.25c.96-.97,1.58-2.57,1.58-4.38,0-.96-.17-1.86-.48-2.63,1.16-2.25.32-4.98-1.96-6.89-.02-.02-.03-.05-.06-.06.05-.38.08-.78.09-1.19,1.41-.78,2.41-2.72,2.41-5.01,0-2.97-1.67-5.36-3.73-5.37.52-.61.81-1.32.81-2.08,0-1.74-5.67.82-7.88.24,1.12-1.17-.32-3.91-1.08-5.84-1.08-2.68,2.01-7.58-.36-6.95-.34.09-.66.23-.94.4.13-.34.21-.63.21-.87,0-3.22-3.66-5.84-8.17-5.84-2.91,0-5.48,1.09-6.92,2.74-.47-3.73-3.23-5.45-8.39-3.28-.16.07-.31.19-.44.35.05-2.75-.44-4.5-2.18-4.53-6.81-.11-8.77,1.57-8.92,4.15-1.31-1.98-3.14-3.16-5.48-3.06-2.1.08-2.9,1.86-3.36,4.58-1.09-1.28-2.71-1.82-4.95-1.28-2.28.55-4.38,2.97-5.49,6.65-1.07-.86-2.42-1.37-3.89-1.37-3.5,0-6.33,2.89-6.33,6.45,0,.26.02.52.05.78-4.78.02-4.44,3.04-5.93,6.17-1.13,2.36-4.04,4.45-1.7,6.81-.57.66-1,1.5-1.24,2.47-.53.4-.97.86-1.31,1.41-1,1.61-.86,3.48.18,5.11-.36,1.14-.28,2.34.17,3.54-.25.7-.39,1.48-.41,2.3-.05,1.47.29,2.82.89,3.83-.32.3-.6.64-.83,1-1.59,2.56-.3,5.77,2.87,7.61-1.79,1.19-2.13,3.91-.68,6.49,1.61,2.89,4.84,4.5,7.22,3.61.78-.29,1.36-.81,1.74-1.48.1,0,.2-.02.29-.05.34-.08.66-.21.94-.38-.14.35-.22.65-.23.89-.1,3.33,3.44,6.14,7.91,6.28,2.89.09,5.46-.96,6.95-2.61.35,3.85,3.02,5.72,8.2,3.64.17-.06.32-.18.45-.34-.13,2.84.3,4.66,2.03,4.75,6.75.32,8.75-1.35,8.98-4,1.23,2.08,3.01,3.35,5.33,3.33,2.09-.02,2.94-1.84,3.48-4.63,1.04,1.35,2.63,1.96,4.86,1.47,2.29-.5,4.45-2.93,5.66-6.69,1.04.92,2.36,1.49,3.81,1.53,3.05.09,5.67-2.14,6.33-5.17.28,2.02,2.44,4.51,4,4.57,1.88.06,3.14-2.53,2.06-5-.09-.22-.19-.44-.28-.66.21.04.41.06.62.06,2.37,0,4.28-2.43,4.28-5.41,0-.73-.11-1.42-.32-2.05-.28-.9-.76-1.67-1.35-2.25.05-.39.08-.78.09-1.19.29-.16.57-.37.82-.63Zm-9.76,10.88c0-.13,0-.27-.02-.4h.15c-.06.13-.1.26-.13.4Z"/><path class="cls-17" d="m354.49,396.58c-.29-.93-.78-1.72-1.4-2.32.05-.4.08-.81.1-1.23.3-.16.59-.38.85-.65.64,1.42.82,2.86.45,4.2Z"/><g><path class="cls-14" d="m369.98,375.13c.8.54-4.21,14.06-17.65,16.77-6.2,1.25-16.07,4.62-22.39,4.74-11.14.22-22.28-5.41-33.42-5.18-8.87.18-16.28-.99-24.93.99-13.26,3.05-22.9-11.85-21.84-14.89,5.63-3.05,11.25-6.1,16.88-9.16l81.4-4.96c3.64,1.94,11.31,2.1,15.22,3.42,8.4,2.84,7.32,7.11,6.73,8.27Z"/><path class="cls-14" d="m347.59,363.55l-80.3,4.41c.62-3.72,3.35-4.88,3.97-8.6,1.07-6.39.03-15.34,1.1-21.73,1.66-3.93,6.19-9.94,14.23-9.6,4.54.19,23.72-.06,40.26-1.51,3.58-.31,9.26-.58,13.78,2.93,1.5,1.17,2.41,2.73,3.65,4.78.77,10.37.33,20.16,3.31,29.32Z"/><ellipse class="cls-13" cx="311.52" cy="351.14" rx="3.09" ry="2.37"/><ellipse class="cls-13" cx="288.85" cy="350.43" rx="3.09" ry="2.37"/><ellipse class="cls-13" cx="334.79" cy="348.88" rx="3.09" ry="2.37"/><ellipse class="cls-14" cx="334.82" cy="348.9" rx="1.54" ry="1.19"/><ellipse class="cls-14" cx="311.56" cy="351.19" rx="1.54" ry="1.19"/><ellipse class="cls-14" cx="288.84" cy="350.48" rx="1.54" ry="1.19"/></g></g><g><rect class="cls-16" x="459.37" y="165.93" width="7.8" height="48.73"/><path class="cls-7" d="m461.31,199.51l-.13,5.18"/><path class="cls-7" d="m463.6,203.92l-.2,4.52"/><path class="cls-7" d="m465.62,196.77l-.2,4.52"/><path class="cls-7" d="m461.37,208.14l-.2,4.52"/><path class="cls-7" d="m462.52,195.17l-.2,4.52"/><path class="cls-7" d="m465.75,208.5l-.2,4.52"/><polygon class="cls-18" points="463.71 150.12 463.49 149.86 463.48 149.87 463.5 149.82 463.71 150.12"/><polygon class="cls-18" points="435.1 197.61 442.79 190.94 438.01 191.05 447.81 181.02 440.49 182.25 450.41 169.41 442.91 171.66 463.48 149.87 463.49 149.86 463.71 150.12 483.88 171.3 477.36 169.5 487.52 182.25 480.53 180.87 490.3 191.05 486.06 191.04 494.4 198.32 435.1 197.61"/></g><g><rect class="cls-16" x="171.26" y="190.99" width="15.33" height="123.3"/><path class="cls-7" d="m175.06,275.97l-.26,13.1"/><path class="cls-7" d="m179.56,287.12l-.4,11.45"/><path class="cls-7" d="m183.52,269.04l-.4,11.45"/><path class="cls-7" d="m175.18,297.81l-.4,11.45"/><path class="cls-7" d="m177.43,264.97l-.4,11.45"/><path class="cls-7" d="m183.79,298.71l-.4,11.45"/><polygon class="cls-18" points="179.79 151 179.34 150.32 179.32 150.35 179.37 150.24 179.79 151"/><polygon class="cls-18" points="123.55 271.15 138.67 254.27 129.28 254.55 148.54 229.17 134.15 232.3 153.65 199.8 138.91 205.49 179.32 150.35 179.34 150.32 179.79 151 219.42 204.58 206.6 200.04 226.57 232.3 212.83 228.8 232.03 254.55 223.7 254.52 240.08 272.96 123.55 271.15"/></g><g><rect class="cls-16" x="441.43" y="147.95" width="15.33" height="123.3"/><path class="cls-7" d="m445.23,232.93l-.26,13.1"/><path class="cls-7" d="m449.73,244.07l-.4,11.45"/><path class="cls-7" d="m453.69,225.99l-.4,11.45"/><path class="cls-7" d="m445.35,254.76l-.4,11.45"/><path class="cls-7" d="m447.6,221.93l-.4,11.45"/><path class="cls-7" d="m453.95,255.67l-.4,11.45"/><polygon class="cls-18" points="449.96 107.95 449.51 107.28 449.49 107.3 449.54 107.2 449.96 107.95"/><polygon class="cls-18" points="393.72 228.11 408.84 211.22 399.45 211.51 418.7 186.12 404.32 189.25 423.82 156.75 409.08 162.44 449.49 107.3 449.51 107.28 449.96 107.95 489.59 161.54 476.77 156.99 496.74 189.25 483 185.75 502.2 211.5 493.86 211.47 510.25 229.92 393.72 228.11"/></g><ellipse class="cls-4" cx="192.29" cy="72.29" rx="93.64" ry="56.74"/></g><path class="cls-11" d="m444.77,378.86c0,2.06-1.67,3.74-3.74,3.74s-3.74-1.67-3.74-3.74,1.67-3.74,3.74-3.74,3.74,1.68,3.74,3.74Z"/><rect class="cls-11" x="440.31" y="373.65" width="1.54" height="1.41"/></svg>