<?xml version="1.0" encoding="UTF-8"?>
<svg id="Layer_1" data-name="Layer 1" xmlns="http://www.w3.org/2000/svg" xmlns:xlink="http://www.w3.org/1999/xlink" viewBox="0 0 80.19 142.28">
  <defs>
    <style>
      .cls-1 {
        clip-path: url(#clippath);
      }

      .cls-2 {
        fill: #fff;
      }

      .cls-2, .cls-3 {
        stroke: #231f20;
      }

      .cls-2, .cls-3, .cls-4, .cls-5, .cls-6, .cls-7, .cls-8 {
        stroke-miterlimit: 10;
      }

      .cls-3 {
        fill: #e2a679;
      }

      .cls-4 {
        fill: #646565;
        stroke: #646666;
      }

      .cls-5 {
        fill: #72431b;
      }

      .cls-5, .cls-6 {
        stroke: #010101;
      }

      .cls-6 {
        fill: #0b0806;
      }

      .cls-7 {
        fill: #529e45;
      }

      .cls-7, .cls-8 {
        stroke: #171717;
      }

      .cls-8 {
        fill: none;
      }
    </style>
    <clipPath id="clippath">
      <path class="cls-8" d="m63.25,122c0,9.7-7.17,8.66-24.09,8.66s-24.28,2.74-24.28-6.96c0-7.3,3.39-20.87,10.38-23.21,1.9-.63,5.81,4.17,12.11,4.53,2.1.12,5.24-.43,11.82-3.82,4.85-2.5,14.07,13.12,14.07,20.8Z"/>
    </clipPath>
  </defs>
  <path class="cls-3" d="m49.73,105.86c-4.17,0-8.33,0-12.5,0-3.73,0-7.45,0-11.18,0,0-2.07,0-4.14,0-6.21,0-6.22,0-12.43,0-18.65h23.68c0,6.07,0,12.15,0,18.22,0,2.21,0,4.42,0,6.64Z"/>
  <path class="cls-3" d="m67.78,52.01c.97,24.85-3.9,42.5-29.25,42.29-24.04-.2-32.88-17.66-32.7-42.29.03-3.85.22-6.6.62-8.8.65-3.58,2.16-11.83,8.22-18,8.11-8.25,19.69-7.93,24.89-7.93,23.36,0,27.3,11.4,28.21,34.74Z"/>
  <ellipse class="cls-2" cx="27.14" cy="43.71" rx="6.69" ry="2.37"/>
  <path class="cls-3" d="m39.17,41.34c7.26,9.9,9.2,18.88,5.92,22.1-.66.65-2.37,1.88-6.61,1.26"/>
  <path class="cls-5" d="m71.05,31.12c.84.81,1.38,2.09,1.38,3.53,0,2.46-1.57,4.45-3.52,4.45-.17,0-.34-.02-.51-.05.08.18.15.36.23.55.89,2.03-.16,4.16-1.69,4.11-1.38-.05-3.31-2.41-3.31-4.11,0-1.17.53-2.19,1.31-2.71-2.08-.76-3.66-3.46-3.8-6.73-.4.18-.82.28-1.26.28-1.81,0-3.38-1.7-4.19-4.19-1.13.59-2.5,1.03-3.68,1.24-3,.56-6.32-.91-5.56-3.83.01-.06.03-.11.05-.17-.02.06-.04.11-.06.15-.12.25-.27.4-.47.45-.03.04-.07.08-.13.12-3.65,2.53-7.02,3.61-9.08,2.11,0,0-.02,0-.03,0-1.09.31-2.98-.77-3.88-2.09-.52.74-1.1,1.27-1.76,1.58-4.28,2-6.16.72-6.71-2.19-.12.13-.24.25-.37.36.15.77.09,1.5-.22,2.15-1.34,2.81-5.79,4.13-10.72,3.46.56,1.19.54,2.5-.17,3.63-.82,1.32-2.41,2.14-4.22,2.35.47.45.9.99,1.23,1.59,1.32,2.37.82,4.89-1.14,5.63-1.95.73-4.61-.59-5.93-2.97-1.19-2.12-.91-4.36.57-5.34-2.61-1.51-3.67-4.16-2.36-6.26.67-1.07,1.84-1.82,3.23-2.17-2.74-2.15-3.96-4.85-2.87-7.13,1.23-2.58,4.09-4.54,8.01-4.56-.03-.21-.04-.42-.04-.64,0-2.93,2.33-5.3,5.21-5.3,1.21,0,2.32.42,3.2,1.12.91-3.02,2.64-5.01,4.51-5.46,1.84-.44,3.17,0,4.07,1.05.38-2.24,1.03-3.7,2.76-3.77,1.92-.08,3.43.89,4.5,2.52.12-2.12,1.74-3.5,7.34-3.41,1.43.02,1.84,1.46,1.8,3.73.11-.13.23-.23.36-.29,4.24-1.78,6.51-.36,6.89,2.7,1.19-1.35,3.29-2.25,5.69-2.25,3.71,0,6.72,2.15,6.72,4.8,0,.19-.06.43-.17.71.23-.14.49-.25.77-.33,1.95-.52,4.24.84,5.12,3.05.63,1.58.36,3.17-.56,4.13,1.81.48,3.1,1.7,3.1,3.13,0,.63-.24,1.21-.67,1.71,1.69,0,3.07,1.98,3.07,4.42,0,1.88-.82,3.49-1.97,4.12-.01.33-.04.66-.08.98Z"/>
  <ellipse class="cls-5" cx="27.49" cy="43.73" rx="1.57" ry="2.35"/>
  <circle class="cls-6" cx="27.49" cy="43.73" r=".79"/>
  <path class="cls-6" d="m51.4,71.82c0,3.12-5.31,5.66-11.85,5.66s-11.85-2.53-11.85-5.66,5.31,0,11.85,0,11.85-3.12,11.85,0Z"/>
  <g>
    <g class="cls-1">
      <rect class="cls-7" x="4.42" y="86.78" width="73.91" height="54.99"/>
      <rect class="cls-4" x="5" y="108.29" width="69.58" height="6.05"/>
      <rect class="cls-4" x="4.81" y="122.21" width="69.58" height="6.07"/>
    </g>
    <path class="cls-8" d="m63.25,122c0,9.7-7.17,8.66-24.09,8.66s-24.28,2.74-24.28-6.96c0-7.3,3.39-20.87,10.38-23.21,1.9-.63,5.81,4.17,12.11,4.53,2.1.12,5.24-.43,11.82-3.82,4.85-2.5,14.07,13.12,14.07,20.8Z"/>
  </g>
  <path class="cls-8" d="m19.95,38.87c1.65-2.7,4.63-4.18,7.53-3.76,3.18.46,4.87,3.01,5.13,3.42"/>
  <path class="cls-8" d="m43.25,38.8c1.65-2.7,4.63-4.18,7.53-3.76,3.18.46,4.87,3.01,5.13,3.42"/>
  <path class="cls-3" d="m24.75,68.37c-1.5.14-2.72,1.11-3.05,2.39-.3,1.16.25,2.15.4,2.39"/>
  <path class="cls-3" d="m56.53,74.97c1.07-1.06,1.39-2.59.84-3.78-.51-1.09-1.56-1.5-1.82-1.59"/>
  <path class="cls-5" d="m44.57,42.51l8.89,1.84"/>
</svg>