<?xml version="1.0" encoding="UTF-8"?><svg id="Layer_1" xmlns="http://www.w3.org/2000/svg" width="123.01" height="218.18" xmlns:xlink="http://www.w3.org/1999/xlink" viewBox="0 0 123.01 218.18"><defs><style>.cls-1{clip-path:url(#clippath);}.cls-2{fill:#fff;}.cls-2,.cls-3{stroke:#231f20;}.cls-2,.cls-3,.cls-4,.cls-5,.cls-6,.cls-7,.cls-8{stroke-miterlimit:10;}.cls-3{fill:#e2a679;}.cls-4{fill:#646565;stroke:#646666;}.cls-5{fill:#72431b;}.cls-5,.cls-6{stroke:#010101;}.cls-6{fill:#0b0806;}.cls-7{fill:#529e45;}.cls-7,.cls-8{stroke:#171717;}.cls-8{fill:none;}</style><clipPath id="clippath"><path class="cls-8" d="m96.96,187.28c0,14.91-11.02,13.31-37.04,13.31s-37.33,4.2-37.33-10.71c0-11.22,5.21-32.09,15.95-35.68,2.91-.97,8.93,6.41,18.61,6.97,3.23.19,8.06-.65,18.17-5.87,7.46-3.85,21.64,20.17,21.64,31.97Z"/></clipPath></defs><path class="cls-3" d="m76.18,162.47c-6.4,0-12.81,0-19.21,0-5.73,0-11.46,0-17.19,0,0-3.18,0-6.36,0-9.54,0-9.56,0-19.11,0-28.67h36.4c0,9.34,0,18.68,0,28.02,0,3.4,0,6.8,0,10.2Z"/><path class="cls-3" d="m103.93,79.68c1.5,38.21-5.99,65.34-44.97,65.02-36.96-.3-50.54-27.15-50.27-65.02.04-5.92.34-10.15.96-13.53,1.01-5.51,3.32-18.19,12.64-27.68,12.46-12.69,30.27-12.19,38.27-12.19,35.91,0,41.97,17.52,43.37,53.4Z"/><ellipse class="cls-2" cx="41.45" cy="66.92" rx="10.29" ry="3.64"/><path class="cls-3" d="m59.94,63.28c11.16,15.21,14.14,29.02,9.1,33.97-1.02,1-3.64,2.89-10.16,1.94"/><path class="cls-5" d="m108.96,47.57c1.29,1.25,2.12,3.22,2.12,5.43,0,3.78-2.42,6.84-5.41,6.84-.27,0-.52-.02-.78-.07.12.28.24.56.36.84,1.37,3.11-.24,6.4-2.6,6.32-2.12-.08-5.09-3.7-5.09-6.32,0-1.8.81-3.37,2.01-4.17-3.2-1.16-5.62-5.31-5.84-10.35-.62.28-1.27.44-1.94.44-2.78,0-5.2-2.61-6.43-6.44-1.73.91-3.84,1.58-5.65,1.91-4.61.86-9.71-1.4-8.55-5.89.02-.08.05-.17.07-.26-.03.08-.06.16-.1.24-.18.38-.41.62-.72.69-.05.07-.11.13-.2.19-5.62,3.89-10.79,5.55-13.95,3.25-.01,0-.03.01-.04.02-1.68.47-4.57-1.18-5.97-3.21-.79,1.13-1.69,1.95-2.71,2.42-6.58,3.08-9.47,1.11-10.32-3.37-.18.2-.37.38-.56.55.23,1.18.14,2.3-.34,3.31-2.06,4.33-8.89,6.35-16.48,5.32.85,1.84.84,3.84-.26,5.59-1.27,2.03-3.7,3.29-6.49,3.62.73.69,1.38,1.51,1.89,2.44,2.04,3.65,1.26,7.52-1.75,8.65-3,1.13-7.09-.91-9.12-4.56-1.82-3.26-1.39-6.71.87-8.2-4.02-2.33-5.65-6.39-3.63-9.62,1.03-1.65,2.83-2.79,4.96-3.33-4.21-3.3-6.09-7.45-4.42-10.96,1.89-3.96,6.28-6.98,12.32-7.01-.04-.32-.06-.65-.06-.98,0-4.5,3.58-8.15,8.01-8.15,1.86,0,3.56.64,4.92,1.73,1.39-4.65,4.05-7.7,6.93-8.39,2.82-.68,4.88,0,6.25,1.62.58-3.44,1.59-5.69,4.25-5.8,2.95-.12,5.27,1.37,6.92,3.87.18-3.25,2.67-5.38,11.28-5.24,2.2.04,2.82,2.25,2.77,5.73.17-.21.35-.35.56-.44,6.52-2.74,10-.56,10.6,4.15,1.82-2.08,5.06-3.46,8.74-3.46,5.7,0,10.33,3.3,10.33,7.38,0,.29-.09.66-.26,1.09.36-.22.76-.39,1.19-.5,3-.8,6.53,1.29,7.88,4.69.97,2.43.56,4.87-.87,6.36,2.79.73,4.77,2.61,4.77,4.81,0,.96-.38,1.86-1.03,2.63,2.6.01,4.71,3.04,4.71,6.79,0,2.89-1.26,5.36-3.03,6.34-.02.51-.07,1.01-.13,1.5Z"/><ellipse class="cls-5" cx="42" cy="66.96" rx="2.42" ry="3.61"/><circle class="cls-6" cx="42" cy="66.96" r="1.21"/><path class="cls-6" d="m78.75,110.14c0,4.8-8.16,8.69-18.22,8.69s-18.22-3.89-18.22-8.69,8.16,0,18.22,0,18.22-4.8,18.22,0Z"/><g><g class="cls-1"><rect class="cls-7" x="6.52" y="133.14" width="113.63" height="84.54"/><rect class="cls-4" x="7.41" y="166.2" width="106.96" height="9.31"/><rect class="cls-4" x="7.12" y="187.6" width="106.96" height="9.33"/></g><path class="cls-8" d="m96.96,187.28c0,14.91-11.02,13.31-37.04,13.31s-37.33,4.2-37.33-10.71c0-11.22,5.21-32.09,15.95-35.68,2.91-.97,8.93,6.41,18.61,6.97,3.23.19,8.06-.65,18.17-5.87,7.46-3.85,21.64,20.17,21.64,31.97Z"/></g><path class="cls-8" d="m30.41,59.48c2.54-4.15,7.11-6.43,11.57-5.78,4.89.71,7.48,4.62,7.89,5.26"/><path class="cls-8" d="m66.22,59.37c2.54-4.15,7.11-6.43,11.57-5.78,4.89.71,7.48,4.62,7.89,5.26"/><path class="cls-3" d="m37.77,104.84c-2.31.22-4.18,1.71-4.69,3.67-.46,1.79.39,3.3.61,3.67"/><path class="cls-3" d="m86.63,114.98c1.65-1.64,2.14-3.98,1.28-5.81-.78-1.67-2.4-2.3-2.8-2.44"/><path class="cls-5" d="m68.24,65.08l13.67,2.82"/></svg>